<svg width="520" height="128" viewBox="0 0 520 128" fill="none" xmlns="http://www.w3.org/2000/svg">
<path d="M130.18 92C129.565 92 129.061 91.8043 128.67 91.4129C128.279 91.0215 128.083 90.5183 128.083 89.9032V35.3871C128.083 34.772 128.279 34.2688 128.67 33.8774C129.061 33.486 129.565 33.2903 130.18 33.2903H139.07C140.021 33.2903 140.691 33.514 141.083 33.9613C141.53 34.3527 141.81 34.6602 141.922 34.8839L162.386 67.1742V35.3871C162.386 34.772 162.582 34.2688 162.973 33.8774C163.365 33.486 163.868 33.2903 164.483 33.2903H174.547C175.162 33.2903 175.666 33.486 176.057 33.8774C176.448 34.2688 176.644 34.772 176.644 35.3871V89.9032C176.644 90.4624 176.448 90.9656 176.057 91.4129C175.666 91.8043 175.162 92 174.547 92H165.573C164.679 92 164.008 91.7763 163.56 91.329C163.169 90.8817 162.917 90.5742 162.805 90.4065L142.341 59.3742V89.9032C142.341 90.5183 142.145 91.0215 141.754 91.4129C141.362 91.8043 140.859 92 140.244 92H130.18ZM182.075 92C181.46 92 180.957 91.8043 180.565 91.4129C180.174 91.0215 179.978 90.5183 179.978 89.9032V35.3871C179.978 34.772 180.174 34.2688 180.565 33.8774C180.957 33.486 181.46 33.2903 182.075 33.2903H221.243C221.858 33.2903 222.361 33.486 222.752 33.8774C223.144 34.2688 223.339 34.772 223.339 35.3871V43.271C223.339 43.886 223.144 44.3892 222.752 44.7806C222.361 45.172 221.858 45.3677 221.243 45.3677H194.488V56.6903H219.397C220.012 56.6903 220.516 56.914 220.907 57.3613C221.298 57.7527 221.494 58.2559 221.494 58.871V66.1677C221.494 66.7269 221.298 67.2301 220.907 67.6774C220.516 68.0688 220.012 68.2645 219.397 68.2645H194.488V79.9226H221.914C222.529 79.9226 223.032 80.1183 223.423 80.5097C223.815 80.9011 224.01 81.4043 224.01 82.0194V89.9032C224.01 90.5183 223.815 91.0215 223.423 91.4129C223.032 91.8043 222.529 92 221.914 92H182.075ZM237.067 92C236.116 92 235.361 91.7204 234.802 91.1613C234.243 90.6022 233.908 89.9591 233.796 89.2323L224.654 35.6387C224.598 35.5269 224.57 35.415 224.57 35.3032C224.57 35.1914 224.57 35.1075 224.57 35.0516C224.57 34.6043 224.738 34.2129 225.073 33.8774C225.465 33.486 225.884 33.2903 226.331 33.2903H236.731C238.297 33.2903 239.163 33.9054 239.331 35.1355L244.783 67.929L250.821 48.5548C250.989 48.1075 251.269 47.6323 251.66 47.129C252.052 46.5699 252.695 46.2903 253.589 46.2903H259.628C260.578 46.2903 261.249 46.5699 261.641 47.129C262.032 47.6323 262.284 48.1075 262.396 48.5548L268.434 67.8452L273.886 35.1355C274.054 33.9054 274.92 33.2903 276.486 33.2903H286.886C287.389 33.2903 287.809 33.486 288.144 33.8774C288.48 34.2129 288.647 34.6043 288.647 35.0516C288.647 35.1075 288.647 35.1914 288.647 35.3032C288.647 35.415 288.647 35.5269 288.647 35.6387L279.505 89.2323C279.394 89.9591 279.058 90.6022 278.499 91.1613C277.94 91.7204 277.185 92 276.234 92H268.267C267.316 92 266.589 91.7484 266.086 91.2452C265.583 90.7419 265.247 90.2667 265.08 89.8194L256.609 65.8323L248.138 89.8194C247.97 90.2667 247.634 90.7419 247.131 91.2452C246.684 91.7484 245.985 92 245.034 92H237.067ZM295.783 92C295.224 92 294.748 91.8043 294.357 91.4129C293.966 91.0215 293.77 90.5462 293.77 89.9871V35.3871C293.77 34.772 293.966 34.2688 294.357 33.8774C294.748 33.486 295.224 33.2903 295.783 33.2903H318.26C322.622 33.2903 326.424 33.9892 329.667 35.3871C332.91 36.729 335.426 38.7978 337.215 41.5935C339.004 44.3333 339.899 47.772 339.899 51.9097C339.899 56.1032 339.004 59.5699 337.215 62.3097C335.426 64.9935 332.91 67.0064 329.667 68.3484C326.424 69.6903 322.622 70.3613 318.26 70.3613H305.764V89.9871C305.764 90.5462 305.568 91.0215 305.176 91.4129C304.841 91.8043 304.366 92 303.751 92H295.783ZM305.596 61.0516H317.841C321.084 61.0516 323.572 60.2968 325.305 58.7871C327.039 57.2215 327.905 54.929 327.905 51.9097C327.905 49.114 327.095 46.8774 325.473 45.2C323.852 43.4667 321.308 42.6 317.841 42.6H305.596V61.0516ZM331.699 92C331.252 92 330.833 91.8323 330.441 91.4968C330.106 91.1613 329.938 90.7419 329.938 90.2387C329.938 90.0151 329.994 89.7634 330.106 89.4839L350.319 35.3871C350.486 34.828 350.794 34.3527 351.241 33.9613C351.744 33.514 352.415 33.2903 353.254 33.2903H362.396C363.235 33.2903 363.878 33.514 364.325 33.9613C364.772 34.3527 365.108 34.828 365.332 35.3871L385.544 89.4839C385.6 89.7634 385.628 90.0151 385.628 90.2387C385.628 90.7419 385.461 91.1613 385.125 91.4968C384.79 91.8323 384.398 92 383.951 92H376.654C375.871 92 375.284 91.8323 374.893 91.4968C374.557 91.1054 374.334 90.7419 374.222 90.4065L370.28 80.1742H345.37L341.428 90.4065C341.317 90.7419 341.065 91.1054 340.674 91.4968C340.338 91.8323 339.779 92 338.996 92H331.699ZM348.306 70.529H367.344L357.783 44.6129L348.306 70.529ZM386.246 92C385.686 92 385.211 91.8043 384.82 91.4129C384.428 91.0215 384.233 90.5462 384.233 89.9871V35.3871C384.233 34.772 384.428 34.2688 384.82 33.8774C385.211 33.486 385.686 33.2903 386.246 33.2903H392.704C393.486 33.2903 394.046 33.486 394.381 33.8774C394.772 34.2129 395.024 34.4645 395.136 34.6323L419.291 72.2064V35.3871C419.291 34.772 419.459 34.2688 419.794 33.8774C420.185 33.486 420.689 33.2903 421.304 33.2903H428.349C428.964 33.2903 429.467 33.486 429.859 33.8774C430.25 34.2688 430.446 34.772 430.446 35.3871V89.9032C430.446 90.5183 430.25 91.0215 429.859 91.4129C429.467 91.8043 428.992 92 428.433 92H421.891C421.108 92 420.549 91.8043 420.213 91.4129C419.878 91.0215 419.626 90.7699 419.459 90.6581L395.388 53.9226V89.9871C395.388 90.5462 395.192 91.0215 394.8 91.4129C394.409 91.8043 393.906 92 393.291 92H386.246ZM435.48 92C434.921 92 434.446 91.8043 434.055 91.4129C433.663 91.0215 433.468 90.5462 433.468 89.9871V35.3871C433.468 34.772 433.663 34.2688 434.055 33.8774C434.446 33.486 434.921 33.2903 435.48 33.2903H472.384C472.999 33.2903 473.502 33.486 473.893 33.8774C474.285 34.2688 474.48 34.772 474.48 35.3871V40.9226C474.48 41.4817 474.285 41.957 473.893 42.3484C473.502 42.7398 472.999 42.9355 472.384 42.9355H444.79V57.7806H470.539C471.154 57.7806 471.657 57.9763 472.048 58.3677C472.44 58.7032 472.635 59.1785 472.635 59.7935V64.9935C472.635 65.6086 472.44 66.1118 472.048 66.5032C471.657 66.8387 471.154 67.0064 470.539 67.0064H444.79V82.3548H473.055C473.67 82.3548 474.173 82.5505 474.564 82.9419C474.956 83.3333 475.151 83.8366 475.151 84.4516V89.9871C475.151 90.5462 474.956 91.0215 474.564 91.4129C474.173 91.8043 473.67 92 473.055 92H435.48ZM479.267 92C478.708 92 478.233 91.8043 477.841 91.4129C477.45 91.0215 477.254 90.5462 477.254 89.9871V35.3032C477.254 34.7441 477.45 34.2688 477.841 33.8774C478.233 33.486 478.708 33.2903 479.267 33.2903H487.067C487.626 33.2903 488.101 33.486 488.493 33.8774C488.884 34.2688 489.08 34.7441 489.08 35.3032V82.0194H515.667C516.282 82.0194 516.785 82.2151 517.177 82.6065C517.568 82.9978 517.764 83.5011 517.764 84.1161V89.9871C517.764 90.5462 517.568 91.0215 517.177 91.4129C516.785 91.8043 516.282 92 515.667 92H479.267Z" fill="url(#paint0_linear_256_5243)"/>
<path d="M25.9599 21.7843H25.7163C24.8097 21.7803 23.6674 21.7763 22.5691 22.0918C21.6163 22.3638 20.7225 22.8108 19.9332 23.4098C19.0226 24.1007 18.3396 25.0153 17.8004 25.7422L17.6527 25.9379L11.7818 34.5637C11.2346 35.2906 10.963 35.654 10.8632 36.0015C10.7314 36.4842 10.7819 36.9986 11.0051 37.4464C11.2283 37.8943 11.6085 38.2443 12.0733 38.4298C12.4168 38.5576 12.8721 38.5576 13.7947 38.5576H82.0576C82.9762 38.5576 83.4355 38.5576 83.775 38.4298C84.2405 38.2451 84.6216 37.8953 84.8456 37.4474C85.0696 36.9995 85.1207 36.4847 84.9891 36.0015C84.8893 35.654 84.6177 35.2906 84.0705 34.5637L78.1995 25.9379L78.0517 25.7382C77.5126 25.0153 76.8296 24.1007 75.919 23.4098C75.1297 22.8108 74.2359 22.3638 73.2831 22.0918C72.1848 21.7763 71.0465 21.7803 70.1399 21.7843H25.9599Z" fill="#4200FF"/>
<path d="M25.9599 21.7843H25.7163C24.8097 21.7803 23.6674 21.7763 22.5691 22.0918C21.6163 22.3638 20.7225 22.8108 19.9332 23.4098C19.0226 24.1007 18.3396 25.0153 17.8004 25.7422L17.6527 25.9379L11.7818 34.5637C11.2346 35.2906 10.963 35.654 10.8632 36.0015C10.7314 36.4842 10.7819 36.9986 11.0051 37.4464C11.2283 37.8943 11.6085 38.2443 12.0733 38.4298C12.4168 38.5576 12.8721 38.5576 13.7947 38.5576H82.0576C82.9762 38.5576 83.4355 38.5576 83.775 38.4298C84.2405 38.2451 84.6216 37.8953 84.8456 37.4474C85.0696 36.9995 85.1207 36.4847 84.9891 36.0015C84.8893 35.654 84.6177 35.2906 84.0705 34.5637L78.1995 25.9379L78.0517 25.7382C77.5126 25.0153 76.8296 24.1007 75.919 23.4098C75.1297 22.8108 74.2359 22.3638 73.2831 22.0918C72.1848 21.7763 71.0465 21.7803 70.1399 21.7843H25.9599Z" fill="url(#paint1_linear_256_5243)"/>
<path fill-rule="evenodd" clip-rule="evenodd" d="M87.8649 47.7434C87.8649 45.5069 87.8649 44.3886 87.4296 43.5339C87.0467 42.7825 86.4357 42.1715 85.6843 41.7886C84.8296 41.3533 83.7113 41.3533 81.4747 41.3533H14.378C12.1414 41.3533 11.0231 41.3533 10.1684 41.7886C9.41698 42.1715 8.80602 42.7825 8.42312 43.5339C7.98779 44.3886 7.98779 45.5069 7.98779 47.7434V88.6325C7.98779 90.7373 7.98779 92.5545 8.10761 94.0522C8.23941 95.6298 8.52297 97.1994 9.29378 98.713C10.4432 100.966 12.276 102.797 14.5297 103.945C16.0394 104.72 17.613 105.003 19.1906 105.131C20.6883 105.251 22.5055 105.251 24.6062 105.251H71.2505C73.3552 105.251 75.1724 105.251 76.6661 105.131C78.2437 105.003 79.8173 104.72 81.327 103.949C83.5813 102.8 85.4142 100.967 86.5629 98.713C87.3337 97.1994 87.6173 95.6298 87.7491 94.0522C87.8689 92.5545 87.8689 90.7373 87.8689 88.6325L87.8649 47.7434ZM31.9509 53.3348C33.0102 53.3348 34.026 53.7556 34.775 54.5046C35.524 55.2536 35.9448 56.2695 35.9448 57.3287C35.9448 60.5064 37.2071 63.554 39.4541 65.8009C41.7011 68.0479 44.7486 69.3103 47.9263 69.3103C51.1041 69.3103 54.1516 68.0479 56.3986 65.8009C58.6456 63.554 59.9079 60.5064 59.9079 57.3287C59.9079 56.2695 60.3287 55.2536 61.0777 54.5046C61.8267 53.7556 62.8425 53.3348 63.9018 53.3348C64.961 53.3348 65.9769 53.7556 66.7259 54.5046C67.4748 55.2536 67.8956 56.2695 67.8956 57.3287C67.8956 62.6249 65.7917 67.7041 62.0468 71.4491C58.3018 75.1941 53.2225 77.298 47.9263 77.298C42.6302 77.298 37.5509 75.1941 33.8059 71.4491C30.061 67.7041 27.9571 62.6249 27.9571 57.3287C27.9571 56.2695 28.3779 55.2536 29.1268 54.5046C29.8758 53.7556 30.8917 53.3348 31.9509 53.3348Z" fill="url(#paint2_linear_256_5243)"/>
<path d="M31.9511 53.3348C33.0104 53.3348 34.0262 53.7556 34.7752 54.5046C35.5242 55.2536 35.945 56.2695 35.945 57.3287C35.945 60.5064 37.2073 63.554 39.4543 65.8009C41.7013 68.0479 44.7488 69.3103 47.9266 69.3103C51.1043 69.3103 54.1518 68.0479 56.3988 65.8009C58.6458 63.554 59.9081 60.5064 59.9081 57.3287C59.9081 56.2695 60.3289 55.2536 61.0779 54.5046C61.8269 53.7556 62.8427 53.3348 63.902 53.3348C64.9612 53.3348 65.9771 53.7556 66.7261 54.5046C67.4751 55.2536 67.8958 56.2695 67.8958 57.3287C67.8958 62.6249 65.7919 67.7041 62.047 71.4491C58.302 75.1941 53.2227 77.298 47.9266 77.298C42.6304 77.298 37.5511 75.1941 33.8061 71.4491C30.0612 67.7041 27.9573 62.6249 27.9573 57.3287C27.9573 56.2695 28.3781 55.2536 29.127 54.5046C29.876 53.7556 30.8919 53.3348 31.9511 53.3348Z" fill="url(#paint3_linear_256_5243)"/>
<defs>
<linearGradient id="paint0_linear_256_5243" x1="321.212" y1="11" x2="321.212" y2="116" gradientUnits="userSpaceOnUse">
<stop stop-color="#364C65"/>
<stop offset="1" stop-color="#778697" stop-opacity="0.5"/>
</linearGradient>
<linearGradient id="paint1_linear_256_5243" x1="47.3271" y1="36.9611" x2="47.3271" y2="21.9841" gradientUnits="userSpaceOnUse">
<stop stop-color="#FF8200"/>
<stop offset="1" stop-color="#FFBF4E"/>
</linearGradient>
<linearGradient id="paint2_linear_256_5243" x1="49.9733" y1="105.654" x2="49.9733" y2="41.3608" gradientUnits="userSpaceOnUse">
<stop stop-color="#00062B"/>
<stop offset="1" stop-color="#000E73"/>
</linearGradient>
<linearGradient id="paint3_linear_256_5243" x1="47.9285" y1="41.3533" x2="47.9285" y2="105.251" gradientUnits="userSpaceOnUse">
<stop stop-color="white"/>
<stop offset="1" stop-color="#E0F7FF"/>
</linearGradient>
</defs>
</svg>
